# 3ds Max Wavefront OBJ Exporter v0.97b - (c)2007 guruware
# File Created: 15.03.2016 14:15:10

mtllib triangle.mtl

#
# object Base
#

v  -1.9379 -0.2291 -1.2538
v  1.9379 -0.2291 -1.2538
v  1.9379 -0.2291 1.2538
v  -1.9379 -0.2291 1.2538
v  1.9379 -0.2274 1.2555
v  1.9379 0.0196 1.2555
v  -1.9379 0.0196 1.2555
v  -1.9379 -0.2274 1.2555
v  -1.9397 0.0196 1.2538
v  -1.9397 0.0196 -1.2538
v  -1.9397 -0.2274 -1.2538
v  -1.9397 -0.2274 1.2538
v  1.9397 -0.2274 -1.2538
v  1.9397 0.0196 -1.2538
v  1.9397 0.0196 1.2538
v  1.9397 -0.2274 1.2538
v  1.9379 0.0213 1.2538
v  1.9379 0.0213 -1.2538
v  -1.9379 0.0213 -1.2538
v  -1.9379 0.0213 1.2538
v  1.9379 0.0196 -1.2555
v  1.9379 -0.2274 -1.2555
v  -1.9379 -0.2274 -1.2555
v  -1.9379 0.0196 -1.2555
v  -1.9392 -0.2286 1.2538
v  -1.9392 -0.2286 -1.2538
v  -1.9379 -0.2286 1.2550
v  1.9379 -0.2286 1.2550
v  -1.9392 -0.2274 1.2550
v  -1.9392 0.0196 1.2550
v  1.9392 -0.2286 1.2538
v  1.9392 -0.2286 -1.2538
v  1.9392 -0.2274 1.2550
v  1.9392 0.0196 1.2550
v  -1.9392 0.0208 1.2538
v  -1.9392 0.0208 -1.2538
v  -1.9379 0.0208 1.2550
v  1.9379 0.0208 1.2550
v  1.9392 0.0208 1.2538
v  1.9392 0.0208 -1.2538
v  -1.9392 0.0196 -1.2550
v  -1.9392 -0.2274 -1.2550
v  -1.9379 0.0208 -1.2550
v  1.9379 0.0208 -1.2550
v  1.9392 0.0196 -1.2550
v  1.9392 -0.2274 -1.2550
v  -1.9379 -0.2286 -1.2550
v  1.9379 -0.2286 -1.2550
v  -1.9389 -0.2283 1.2548
v  1.9389 -0.2283 1.2548
v  -1.9389 0.0206 1.2548
v  1.9389 0.0206 1.2548
v  -1.9389 0.0206 -1.2548
v  1.9389 0.0206 -1.2548
v  -1.9389 -0.2283 -1.2548
v  1.9389 -0.2283 -1.2548
# 56 vertices

vn -0.1877 -0.9642 -0.1876
vn 0.1875 -0.9642 -0.1876
vn 0.1875 -0.9641 0.1877
vn -0.1877 -0.9641 0.1878
vn 0.1879 -0.1879 0.9640
vn 0.1879 0.1880 0.9640
vn -0.1880 0.1880 0.9640
vn -0.1880 -0.1879 0.9640
vn -0.9641 0.1877 0.1877
vn -0.9641 0.1877 -0.1876
vn -0.9642 -0.1876 -0.1876
vn -0.9641 -0.1876 0.1878
vn 0.9642 -0.1875 -0.1875
vn 0.9642 0.1876 -0.1875
vn 0.9641 0.1877 0.1877
vn 0.9642 -0.1875 0.1877
vn 0.1879 0.9640 0.1880
vn 0.1875 0.9642 -0.1876
vn -0.1877 0.9642 -0.1876
vn -0.1880 0.9640 0.1880
vn 0.1876 0.1877 -0.9641
vn 0.1876 -0.1876 -0.9642
vn -0.1877 -0.1876 -0.9641
vn -0.1877 0.1877 -0.9641
vn -0.3633 -0.9176 0.1612
vn -0.3633 -0.9176 -0.1611
vn -0.9178 -0.3629 0.1610
vn -0.9178 -0.3630 -0.1609
vn -0.1612 -0.3634 0.9176
vn 0.1611 -0.3635 0.9176
vn -0.1612 -0.9176 0.3633
vn 0.1611 -0.9176 0.3634
vn -0.9177 -0.1609 0.3632
vn -0.9177 0.1610 0.3631
vn -0.3637 -0.1611 0.9175
vn -0.3636 0.1611 0.9175
vn 0.9177 -0.3630 0.1612
vn 0.9177 -0.3630 -0.1611
vn 0.3630 -0.9177 0.1612
vn 0.3630 -0.9177 -0.1611
vn 0.3635 -0.1611 0.9176
vn 0.3634 0.1612 0.9176
vn 0.9176 -0.1611 0.3633
vn 0.9177 0.1612 0.3632
vn -0.9177 0.3631 0.1610
vn -0.9177 0.3632 -0.1609
vn -0.3636 0.9175 0.1612
vn -0.3631 0.9177 -0.1609
vn -0.1611 0.9175 0.3636
vn 0.1611 0.9175 0.3637
vn -0.1612 0.3635 0.9175
vn 0.1611 0.3637 0.9175
vn 0.3633 0.9176 0.1612
vn 0.3629 0.9178 -0.1609
vn 0.9177 0.3632 0.1612
vn 0.9177 0.3632 -0.1611
vn -0.9178 0.1610 -0.3629
vn -0.9178 -0.1609 -0.3630
vn -0.3634 0.1613 -0.9176
vn -0.3634 -0.1612 -0.9176
vn -0.1613 0.3634 -0.9176
vn 0.1612 0.3635 -0.9176
vn -0.1610 0.9178 -0.3629
vn 0.1609 0.9178 -0.3630
vn 0.3631 0.1613 -0.9177
vn 0.3632 -0.1612 -0.9177
vn 0.9177 0.1612 -0.3630
vn 0.9177 -0.1611 -0.3631
vn -0.1612 -0.9177 -0.3631
vn 0.1611 -0.9177 -0.3632
vn -0.1613 -0.3632 -0.9177
vn 0.1612 -0.3633 -0.9176
vn -0.9111 -0.2914 0.2916
vn -0.2923 -0.9105 0.2923
vn -0.2916 -0.2914 0.9111
vn 0.2923 -0.9105 0.2926
vn 0.9105 -0.2923 0.2926
vn 0.2916 -0.2916 0.9110
vn -0.2913 0.9112 0.2913
vn -0.9112 0.2913 0.2913
vn -0.2915 0.2914 0.9111
vn 0.9106 0.2923 0.2923
vn 0.2913 0.9111 0.2916
vn 0.2913 0.2916 0.9111
vn -0.2925 0.2925 -0.9104
vn -0.9110 0.2917 -0.2914
vn -0.2916 0.9110 -0.2914
vn 0.9103 0.2928 -0.2926
vn 0.2925 0.2928 -0.9103
vn 0.2916 0.9110 -0.2917
vn -0.2926 -0.9104 -0.2924
vn -0.9109 -0.2917 -0.2917
vn -0.2928 -0.2925 -0.9103
vn 0.9102 -0.2929 -0.2929
vn 0.2926 -0.9103 -0.2927
vn 0.2928 -0.2929 -0.9102
# 96 vertex normals

g Base
usemtl 01___Default
s 1
f 1//1 2//2 3//3 
f 1//1 3//3 4//4 
s 2
f 5//5 6//6 7//7 
f 5//5 7//7 8//8 
s 4
f 9//9 10//10 11//11 
f 9//9 11//11 12//12 
f 13//13 14//14 15//15 
f 13//13 15//15 16//16 
s 1
f 17//17 18//18 19//19 
f 17//17 19//19 20//20 
s 2
f 21//21 22//22 23//23 
f 21//21 23//23 24//24 
s 1
f 4//4 25//25 26//26 
f 4//4 26//26 1//1 
s 4
f 25//27 12//12 11//11 
f 25//27 11//11 26//28 
s 2
f 8//8 27//29 28//30 
f 8//8 28//30 5//5 
s 1
f 27//31 4//4 3//3 
f 27//31 3//3 28//32 
s 4
f 12//12 29//33 30//34 
f 12//12 30//34 9//9 
s 2
f 29//35 8//8 7//7 
f 29//35 7//7 30//36 
s 4
f 16//16 31//37 32//38 
f 16//16 32//38 13//13 
s 1
f 31//39 3//3 2//2 
f 31//39 2//2 32//40 
s 2
f 5//5 33//41 34//42 
f 5//5 34//42 6//6 
s 4
f 33//43 16//16 15//15 
f 33//43 15//15 34//44 
f 9//9 35//45 36//46 
f 9//9 36//46 10//10 
s 1
f 35//47 20//20 19//19 
f 35//47 19//19 36//48 
f 20//20 37//49 38//50 
f 20//20 38//50 17//17 
s 2
f 37//51 7//7 6//6 
f 37//51 6//6 38//52 
s 1
f 17//17 39//53 40//54 
f 17//17 40//54 18//18 
s 4
f 39//55 15//15 14//14 
f 39//55 14//14 40//56 
f 10//10 41//57 42//58 
f 10//10 42//58 11//11 
s 2
f 41//59 24//24 23//23 
f 41//59 23//23 42//60 
f 24//24 43//61 44//62 
f 24//24 44//62 21//21 
s 1
f 43//63 19//19 18//18 
f 43//63 18//18 44//64 
s 2
f 21//21 45//65 46//66 
f 21//21 46//66 22//22 
s 4
f 45//67 14//14 13//13 
f 45//67 13//13 46//68 
s 1
f 1//1 47//69 48//70 
f 1//1 48//70 2//2 
s 2
f 47//71 23//23 22//22 
f 47//71 22//22 48//72 
s 4
f 29//33 12//12 25//27 
f 29//33 25//27 49//73 
s 1
f 25//25 4//4 27//31 
f 25//25 27//31 49//74 
s 2
f 27//29 8//8 29//35 
f 27//29 29//35 49//75 
s 1
f 28//32 3//3 31//39 
f 28//32 31//39 50//76 
s 4
f 31//37 16//16 33//43 
f 31//37 33//43 50//77 
s 2
f 33//41 5//5 28//30 
f 33//41 28//30 50//78 
s 1
f 37//49 20//20 35//47 
f 37//49 35//47 51//79 
s 4
f 35//45 9//9 30//34 
f 35//45 30//34 51//80 
s 2
f 30//36 7//7 37//51 
f 30//36 37//51 51//81 
s 4
f 34//44 15//15 39//55 
f 34//44 39//55 52//82 
s 1
f 39//53 17//17 38//50 
f 39//53 38//50 52//83 
s 2
f 38//52 6//6 34//42 
f 38//52 34//42 52//84 
f 43//61 24//24 41//59 
f 43//61 41//59 53//85 
s 4
f 41//57 10//10 36//46 
f 41//57 36//46 53//86 
s 1
f 36//48 19//19 43//63 
f 36//48 43//63 53//87 
s 4
f 40//56 14//14 45//67 
f 40//56 45//67 54//88 
s 2
f 45//65 21//21 44//62 
f 45//65 44//62 54//89 
s 1
f 44//64 18//18 40//54 
f 44//64 40//54 54//90 
f 47//69 1//1 26//26 
f 47//69 26//26 55//91 
s 4
f 26//28 11//11 42//58 
f 26//28 42//58 55//92 
s 2
f 42//60 23//23 47//71 
f 42//60 47//71 55//93 
s 4
f 46//68 13//13 32//38 
f 46//68 32//38 56//94 
s 1
f 32//40 2//2 48//70 
f 32//40 48//70 56//95 
s 2
f 48//72 22//22 46//66 
f 48//72 46//66 56//96 
# 108 faces

